<svg xmlns="http://www.w3.org/2000/svg" viewBox="0 0 512 512">
  <defs>
    <radialGradient id="bg" cx="50%" cy="36%" r="78%">
      <stop offset="0" stop-color="#26386c"/>
      <stop offset="55%" stop-color="#141d40"/>
      <stop offset="100%" stop-color="#090d1e"/>
    </radialGradient>
  </defs><rect width="512" height="512" rx="112" fill="url(#bg)"/>
  <!-- ground shadow -->
  <ellipse cx="256" cy="414" rx="158" ry="20" fill="#000" opacity="0.30"/>

  <!-- C&C wordmark (white C's, orange ampersand — matches the logo) -->
  <text x="258" y="214" text-anchor="middle" font-family="Arial Black" font-weight="900"
        font-size="176" letter-spacing="-6" fill="#f4f7ff">C<tspan fill="#ff7a33">&amp;</tspan>C</text>

  <!-- tank (back-to-front) -->
  <rect x="168" y="382" width="176" height="36" rx="18" fill="#181b23"/>
  <g fill="#39402f">
    <circle cx="196" cy="400" r="10"/><circle cx="232" cy="400" r="10"/>
    <circle cx="268" cy="400" r="10"/><circle cx="304" cy="400" r="10"/>
    <circle cx="330" cy="400" r="8"/>
  </g>
  <path d="M180 386 l16 -36 h120 l16 36 z" fill="#7f8c54"/>
  <path d="M180 386 l16 -36 h60 l-6 36 z" fill="#8f9c61"/>
  <rect x="230" y="320" width="80" height="32" rx="12" fill="#606e41"/>
  <rect x="283" y="280" width="16" height="74" rx="7" transform="rotate(33 291 348)" fill="#c4cbd8"/>
  <g transform="translate(326,294)">
    <circle r="15" fill="#ffd23f"/><circle r="8.5" fill="#ff7a33"/>
  </g></svg>